<mxfile host="app.diagrams.net" modified="2021-09-30T18:47:48.654Z" agent="5.0 (Windows NT 10.0; Win64; x64) AppleWebKit/537.36 (KHTML, like Gecko) Chrome/94.0.4606.61 Safari/537.36" etag="9T7e59vB-XPlKKssUQlE" version="15.3.8" type="github">
  <diagram id="kgpKYQtTHZ0yAKxKKP6v" name="Page-1">
    <mxGraphModel dx="868" dy="450" grid="1" gridSize="10" guides="1" tooltips="1" connect="1" arrows="1" fold="1" page="1" pageScale="1" pageWidth="850" pageHeight="1100" math="0" shadow="0">
      <root>
        <mxCell id="0" />
        <mxCell id="1" parent="0" />
        <mxCell id="56J8bb4s6W5pYYQ_S6ca-3" value="alt" style="shape=umlFrame;whiteSpace=wrap;html=1;fontSize=14;fontFamily=Times New Roman;" vertex="1" parent="1">
          <mxGeometry x="90" y="240" width="550" height="360" as="geometry" />
        </mxCell>
        <mxCell id="3nuBFxr9cyL0pnOWT2aG-1" value=":StaffMerchant" style="shape=umlLifeline;perimeter=lifelinePerimeter;container=1;collapsible=0;recursiveResize=0;rounded=0;shadow=0;strokeWidth=1;fontSize=14;fontFamily=Times New Roman;" parent="1" vertex="1">
          <mxGeometry x="120" y="80" width="100" height="580" as="geometry" />
        </mxCell>
        <mxCell id="3nuBFxr9cyL0pnOWT2aG-2" value="" style="points=[];perimeter=orthogonalPerimeter;rounded=0;shadow=0;strokeWidth=1;fontSize=14;fontFamily=Times New Roman;" parent="3nuBFxr9cyL0pnOWT2aG-1" vertex="1">
          <mxGeometry x="45" y="70" width="10" height="470" as="geometry" />
        </mxCell>
        <mxCell id="3nuBFxr9cyL0pnOWT2aG-5" value=":Tada App" style="shape=umlLifeline;perimeter=lifelinePerimeter;container=1;collapsible=0;recursiveResize=0;rounded=0;shadow=0;strokeWidth=1;fontSize=14;fontFamily=Times New Roman;" parent="1" vertex="1">
          <mxGeometry x="300" y="80" width="100" height="580" as="geometry" />
        </mxCell>
        <mxCell id="3nuBFxr9cyL0pnOWT2aG-6" value="" style="points=[];perimeter=orthogonalPerimeter;rounded=0;shadow=0;strokeWidth=1;fontSize=14;fontFamily=Times New Roman;" parent="3nuBFxr9cyL0pnOWT2aG-5" vertex="1">
          <mxGeometry x="45" y="80" width="10" height="460" as="geometry" />
        </mxCell>
        <mxCell id="56J8bb4s6W5pYYQ_S6ca-1" value="" style="html=1;points=[];perimeter=orthogonalPerimeter;fontSize=14;fontFamily=Times New Roman;" vertex="1" parent="3nuBFxr9cyL0pnOWT2aG-5">
          <mxGeometry x="49" y="100" width="10" height="30" as="geometry" />
        </mxCell>
        <mxCell id="56J8bb4s6W5pYYQ_S6ca-2" value="&lt;span style=&quot;text-align: center; font-size: 14px;&quot;&gt;Kiểm tra form&lt;/span&gt;" style="edgeStyle=orthogonalEdgeStyle;html=1;align=left;spacingLeft=2;endArrow=block;rounded=0;entryX=1;entryY=0;fontSize=14;fontFamily=Times New Roman;" edge="1" parent="3nuBFxr9cyL0pnOWT2aG-5">
          <mxGeometry relative="1" as="geometry">
            <mxPoint x="55" y="100" as="sourcePoint" />
            <Array as="points">
              <mxPoint x="86" y="100" />
            </Array>
            <mxPoint x="55" y="120" as="targetPoint" />
          </mxGeometry>
        </mxCell>
        <mxCell id="56J8bb4s6W5pYYQ_S6ca-20" value="Thông báo thành công" style="verticalAlign=bottom;endArrow=open;dashed=1;endSize=8;shadow=0;strokeWidth=1;fontSize=14;fontFamily=Times New Roman;exitX=0.1;exitY=0.783;exitDx=0;exitDy=0;exitPerimeter=0;" edge="1" parent="3nuBFxr9cyL0pnOWT2aG-5">
          <mxGeometry x="-0.0909" y="-10" relative="1" as="geometry">
            <mxPoint x="-127" y="469" as="targetPoint" />
            <mxPoint x="49" y="469.18000000000006" as="sourcePoint" />
            <mxPoint as="offset" />
          </mxGeometry>
        </mxCell>
        <mxCell id="3nuBFxr9cyL0pnOWT2aG-7" value="" style="verticalAlign=bottom;endArrow=none;dashed=1;endSize=8;exitX=1.001;exitY=0.444;shadow=0;strokeWidth=1;fontSize=14;fontFamily=Times New Roman;exitDx=0;exitDy=0;exitPerimeter=0;entryX=-0.002;entryY=0.444;entryDx=0;entryDy=0;entryPerimeter=0;endFill=0;" parent="1" source="56J8bb4s6W5pYYQ_S6ca-3" target="56J8bb4s6W5pYYQ_S6ca-3" edge="1">
          <mxGeometry relative="1" as="geometry">
            <mxPoint x="275" y="236" as="targetPoint" />
          </mxGeometry>
        </mxCell>
        <mxCell id="3nuBFxr9cyL0pnOWT2aG-8" value="Nhập thông tin mã giảm giá" style="verticalAlign=bottom;endArrow=block;entryX=0;entryY=0;shadow=0;strokeWidth=1;fontSize=14;fontFamily=Times New Roman;" parent="1" source="3nuBFxr9cyL0pnOWT2aG-2" target="3nuBFxr9cyL0pnOWT2aG-6" edge="1">
          <mxGeometry relative="1" as="geometry">
            <mxPoint x="275" y="160" as="sourcePoint" />
          </mxGeometry>
        </mxCell>
        <mxCell id="56J8bb4s6W5pYYQ_S6ca-9" value=":Firebase" style="shape=umlLifeline;perimeter=lifelinePerimeter;container=1;collapsible=0;recursiveResize=0;rounded=0;shadow=0;strokeWidth=1;fontSize=14;fontFamily=Times New Roman;" vertex="1" parent="1">
          <mxGeometry x="490" y="80" width="100" height="580" as="geometry" />
        </mxCell>
        <mxCell id="56J8bb4s6W5pYYQ_S6ca-10" value="" style="points=[];perimeter=orthogonalPerimeter;rounded=0;shadow=0;strokeWidth=1;fontSize=14;fontFamily=Times New Roman;" vertex="1" parent="56J8bb4s6W5pYYQ_S6ca-9">
          <mxGeometry x="45" y="80" width="10" height="460" as="geometry" />
        </mxCell>
        <mxCell id="56J8bb4s6W5pYYQ_S6ca-18" value="Lưu vào FireBase" style="verticalAlign=bottom;endArrow=block;entryX=0;entryY=0.63;shadow=0;strokeWidth=1;fontSize=14;fontFamily=Times New Roman;entryDx=0;entryDy=0;entryPerimeter=0;" edge="1" parent="56J8bb4s6W5pYYQ_S6ca-9" target="56J8bb4s6W5pYYQ_S6ca-10">
          <mxGeometry relative="1" as="geometry">
            <mxPoint x="-135" y="370.00000000000216" as="sourcePoint" />
            <mxPoint x="35" y="370.00000000000216" as="targetPoint" />
          </mxGeometry>
        </mxCell>
        <mxCell id="56J8bb4s6W5pYYQ_S6ca-13" value="&lt;span style=&quot;color: rgb(0, 0, 0); font-size: 14px; font-style: normal; font-weight: 400; letter-spacing: normal; text-align: center; text-indent: 0px; text-transform: none; word-spacing: 0px; display: inline; float: none; background-color: rgb(255, 255, 255);&quot;&gt;[Đầu vào không hợp&lt;br style=&quot;font-size: 14px;&quot;&gt;&amp;nbsp;lệ]&lt;/span&gt;" style="text;whiteSpace=wrap;html=1;fontSize=14;fontFamily=Times New Roman;" vertex="1" parent="1">
          <mxGeometry x="100" y="300" width="60" height="50" as="geometry" />
        </mxCell>
        <mxCell id="56J8bb4s6W5pYYQ_S6ca-15" value="&lt;span style=&quot;color: rgb(0, 0, 0); font-size: 14px; font-style: normal; font-weight: 400; letter-spacing: normal; text-align: center; text-indent: 0px; text-transform: none; word-spacing: 0px; background-color: rgb(248, 249, 250); display: inline; float: none;&quot;&gt;[Đầu vào hợp lệ]&lt;/span&gt;" style="text;whiteSpace=wrap;html=1;fontSize=14;fontFamily=Times New Roman;" vertex="1" parent="1">
          <mxGeometry x="100" y="470" width="50" height="50" as="geometry" />
        </mxCell>
        <mxCell id="56J8bb4s6W5pYYQ_S6ca-16" value="Cảnh báo nhập &#xa;đủ/ đúng thông tin" style="verticalAlign=bottom;endArrow=open;dashed=1;endSize=8;shadow=0;strokeWidth=1;fontSize=14;fontFamily=Times New Roman;" edge="1" parent="1" source="3nuBFxr9cyL0pnOWT2aG-6">
          <mxGeometry x="-0.0909" y="-10" relative="1" as="geometry">
            <mxPoint x="180" y="320" as="targetPoint" />
            <mxPoint x="180" y="320.0000000000001" as="sourcePoint" />
            <mxPoint as="offset" />
          </mxGeometry>
        </mxCell>
        <mxCell id="56J8bb4s6W5pYYQ_S6ca-19" value="Callback" style="verticalAlign=bottom;endArrow=open;dashed=1;endSize=8;shadow=0;strokeWidth=1;fontSize=14;fontFamily=Times New Roman;exitX=0.1;exitY=0.783;exitDx=0;exitDy=0;exitPerimeter=0;" edge="1" parent="1" source="56J8bb4s6W5pYYQ_S6ca-10">
          <mxGeometry x="-0.0909" y="-10" relative="1" as="geometry">
            <mxPoint x="360" y="520" as="targetPoint" />
            <mxPoint x="525" y="520" as="sourcePoint" />
            <mxPoint as="offset" />
          </mxGeometry>
        </mxCell>
      </root>
    </mxGraphModel>
  </diagram>
</mxfile>
